<?xml version="1.0" encoding="UTF-8" standalone="no"?>
<!-- Created with Inkscape (http://www.inkscape.org/) -->

<svg
   version="1.1"
   id="svg2747"
   width="1024"
   height="1024"
   viewBox="0 0 1024 1024"
   sodipodi:docname="torsacovas.svg"
   inkscape:version="1.2.2 (b0a8486541, 2022-12-01)"
   xmlns:inkscape="http://www.inkscape.org/namespaces/inkscape"
   xmlns:sodipodi="http://sodipodi.sourceforge.net/DTD/sodipodi-0.dtd"
   xmlns="http://www.w3.org/2000/svg"
   xmlns:svg="http://www.w3.org/2000/svg">
  <sodipodi:namedview
     id="namedview1543"
     pagecolor="#ffffff"
     bordercolor="#000000"
     borderopacity="0.25"
     inkscape:showpageshadow="2"
     inkscape:pageopacity="0.0"
     inkscape:pagecheckerboard="0"
     inkscape:deskcolor="#d1d1d1"
     showgrid="false"
     inkscape:zoom="0.43164062"
     inkscape:cx="515.47511"
     inkscape:cy="514.31674"
     inkscape:window-width="1300"
     inkscape:window-height="645"
     inkscape:window-x="0"
     inkscape:window-y="0"
     inkscape:window-maximized="1"
     inkscape:current-layer="svg2747" />
  <defs
     id="defs2751" />
  <g
     id="g2753"
     transform="rotate(-117.5,496.85502,489.88419)">
    <path
       style="fill:#000000"
       d="m 478.20046,739.9394 c -49.47797,-4.48426 -90.75857,-25.71981 -116.5095,-59.93478 -17.55058,-23.31926 -27.01426,-47.54928 -29.34903,-75.14281 -5.12742,-60.59861 29.42497,-113.28394 87.48895,-133.40274 15.96356,-5.53128 26.06077,-7.18118 44.36958,-7.25006 19.40666,-0.073 31.97418,2.09176 48.85173,8.41481 9.68634,3.62891 22.45731,10.00952 23.5397,11.76087 0.56403,0.91262 -25.17475,39.59617 -37.37747,56.17567 -16.78575,22.80634 -33.73753,44.03161 -49.91625,62.5 -11.21593,12.80325 -58.97731,61.10274 -68.02178,68.78817 l -5.42407,4.60904 4.92407,4.61568 c 17.75746,16.64534 38.33634,28.3645 61.30967,34.91434 14.89278,4.24601 23.95303,5.57277 38.05577,5.57277 25.01755,0 51.14851,-8.4214 70.55863,-22.73941 10.86098,-8.01167 24.89241,-23.12568 30.93046,-33.31685 6.60348,-11.14552 13.27424,-27.85833 15.85865,-39.73198 3.08496,-14.17338 3.09426,-44.74308 0.0176,-57.71176 -7.71137,-32.50439 -25.8138,-59.4967 -52.39134,-78.12007 l -7.98481,-5.5951 3.18801,-5.64242 c 13.23535,-23.42512 32.88143,-62.5584 32.88143,-65.49702 0,-0.75509 -7.9875,-8.80683 -17.75,-17.89274 -41.15945,-38.30689 -60.83843,-61.47602 -67.51542,-79.48958 -8.6053,-23.21583 -4.57441,-52.84667 9.20336,-67.65335 6.26745,-6.7355 10.65657,-8.56062 20.6521,-8.58776 10.65045,-0.0289 21.41478,2.77218 33.90996,8.82405 26.49678,12.83335 41.90857,32.87942 46.60083,60.61353 3.28018,19.38791 -2.53936,48.911 -16.72316,84.8382 l -7.42121,18.79775 12.6211,13.70225 c 27.67098,30.04132 45.49741,54.89656 57.88048,80.70226 10.5785,22.04504 15.09606,38.63032 16.74584,61.47887 1.40828,19.50378 -0.34823,36.41416 -5.7215,55.08235 -16.7325,58.13322 -68.07469,102.29746 -132.38616,113.87775 -10.52205,1.89466 -35.93956,3.26995 -45.09622,2.44007 z"
       id="path5059" />
  </g>
</svg>
