<?xml version="1.0" encoding="UTF-8" standalone="no"?>
<!-- Created with Inkscape (http://www.inkscape.org/) -->

<svg
   version="1.1"
   id="svg212"
   width="1080"
   height="1080"
   viewBox="0 0 1080 1080"
   xmlns="http://www.w3.org/2000/svg"
   xmlns:svg="http://www.w3.org/2000/svg">
  <defs
     id="defs216" />
  <g
     id="g218">
    <path
       style="fill:#000000;stroke-width:0.5"
       d="M 475.58371,874.625 C 440.32952,799.06875 411.48851,737.02466 411.49259,736.74925 411.49659,736.47385 440.4125,707.3367 475.75,672 l 64.25,-64.24855 64.4213,64.41985 64.4213,64.41985 -64.263,137.70445 C 569.23495,950.033 540.17385,1012 539.99945,1012 539.825,1012 510.8379,950.18125 475.58371,874.625 Z M 205.875,604.66495 C 130.04375,569.2864 68,540.18765 68,540.001 c 0,-0.38525 274.47908,-128.51709 275.25,-128.49173 0.275,0.009 29.525,28.90591 65,64.21526 l 64.5,64.19883 -64.5,64.53309 -64.5,64.53315 z M 672,604.25 607.75145,540 672,475.75 c 35.3367,-35.3375 64.47385,-64.25162 64.74925,-64.25359 C 737.5424,411.49041 1012,539.62335 1012,539.9993 c 0,0.37645 -274.459,128.5118 -275.25075,128.505 -0.2754,0 -29.41255,-28.9168 -64.74925,-64.2543 z M 475.7036,407.95409 411.15769,343.40816 475.42054,205.70408 C 510.7651,129.96684 539.82585,68.000005 540,68.000005 c 0.17415,0 29.2706,62.043385 64.65885,137.874205 L 669.0011,343.74842 604.6253,408.12421 540.2495,472.5 Z"
       id="path276" />
  </g>
</svg>
